<svg version="1.2" xmlns="http://www.w3.org/2000/svg" xmlns:xlink="http://www.w3.org/1999/xlink" overflow="visible" preserveAspectRatio="none" viewBox="0 0 24 24" width="32" height="32"><g><path xmlns:default="http://www.w3.org/2000/svg" id="filter" d="M18.65,4.67H5.34C5.06,4.65,4.82,4.82,4.72,5.08C4.6,5.32,4.66,5.63,4.88,5.81l5.12,5.13V16  c0,0.18,0.07,0.35,0.2,0.47l2.67,2.67c0.12,0.13,0.29,0.2,0.47,0.2c0.09,0,0.18-0.02,0.26-0.05c0.26-0.1,0.42-0.35,0.4-0.63v-7.72  l5.13-5.13c0.21-0.18,0.28-0.48,0.15-0.73C19.18,4.82,18.93,4.65,18.65,4.67z" style="fill: rgb(27, 38, 97);" vector-effect="non-scaling-stroke"/></g></svg>