<svg version="1.2" xmlns="http://www.w3.org/2000/svg" xmlns:xlink="http://www.w3.org/1999/xlink" overflow="visible" preserveAspectRatio="none" viewBox="0 0 24 24" width="27" height="27"><g><path xmlns:default="http://www.w3.org/2000/svg" id="cloud" d="M22.01,15.3c0.01-0.91-0.3-1.79-0.87-2.49c-0.56-0.71-1.34-1.2-2.22-1.4c0.68-1.05,0.54-2.44-0.35-3.32  c-0.49-0.51-1.17-0.79-1.88-0.78c-0.64-0.01-1.27,0.23-1.74,0.66c-0.41-0.98-1.11-1.81-2-2.39c-0.88-0.61-1.93-0.93-3-0.92  C8.56,4.65,7.22,5.2,6.24,6.2C5.23,7.19,4.66,8.55,4.68,9.97c0,0.11,0,0.26,0,0.45c-0.8,0.37-1.48,0.96-1.95,1.7  c-1.2,1.86-0.93,4.3,0.65,5.85c0.86,0.89,2.06,1.39,3.3,1.37h11.33c2.21,0,4-1.79,4-4l0,0V15.3z" style="fill: rgb(49, 139, 214);" vector-effect="non-scaling-stroke"/></g></svg>